solid Sat_rightpanel
   facet normal 0.000000e+00 0.000000e+00 -1.000000e+00
      outer loop
         vertex 1.500000e+03 1.512500e+03 0.000000e+00
         vertex 3.000000e+03 1.512500e+03 0.000000e+00
         vertex 1.500000e+03 1.487500e+03 0.000000e+00
      endloop
   endfacet
   facet normal 0.000000e+00 0.000000e+00 -1.000000e+00
      outer loop
         vertex 1.500000e+03 1.487500e+03 0.000000e+00
         vertex 3.000000e+03 1.512500e+03 0.000000e+00
         vertex 3.000000e+03 1.487500e+03 0.000000e+00
      endloop
   endfacet
   facet normal -1.000000e+00 -0.000000e+00 -0.000000e+00
      outer loop
         vertex 1.500000e+03 1.512500e+03 5.000000e+02
         vertex 1.500000e+03 1.512500e+03 0.000000e+00
         vertex 1.500000e+03 1.487500e+03 5.000000e+02
      endloop
   endfacet
   facet normal -1.000000e+00 0.000000e+00 0.000000e+00
      outer loop
         vertex 1.500000e+03 1.487500e+03 5.000000e+02
         vertex 1.500000e+03 1.512500e+03 0.000000e+00
         vertex 1.500000e+03 1.487500e+03 0.000000e+00
      endloop
   endfacet
   facet normal 0.000000e+00 0.000000e+00 1.000000e+00
      outer loop
         vertex 3.000000e+03 1.512500e+03 5.000000e+02
         vertex 1.500000e+03 1.512500e+03 5.000000e+02
         vertex 3.000000e+03 1.487500e+03 5.000000e+02
      endloop
   endfacet
   facet normal 0.000000e+00 0.000000e+00 1.000000e+00
      outer loop
         vertex 3.000000e+03 1.487500e+03 5.000000e+02
         vertex 1.500000e+03 1.512500e+03 5.000000e+02
         vertex 1.500000e+03 1.487500e+03 5.000000e+02
      endloop
   endfacet
   facet normal 1.000000e+00 0.000000e+00 -0.000000e+00
      outer loop
         vertex 3.000000e+03 1.512500e+03 0.000000e+00
         vertex 3.000000e+03 1.512500e+03 5.000000e+02
         vertex 3.000000e+03 1.487500e+03 0.000000e+00
      endloop
   endfacet
   facet normal 1.000000e+00 0.000000e+00 0.000000e+00
      outer loop
         vertex 3.000000e+03 1.487500e+03 0.000000e+00
         vertex 3.000000e+03 1.512500e+03 5.000000e+02
         vertex 3.000000e+03 1.487500e+03 5.000000e+02
      endloop
   endfacet
   facet normal -0.000000e+00 1.000000e+00 0.000000e+00
      outer loop
         vertex 1.500000e+03 1.512500e+03 5.000000e+02
         vertex 3.000000e+03 1.512500e+03 5.000000e+02
         vertex 1.500000e+03 1.512500e+03 0.000000e+00
      endloop
   endfacet
   facet normal 0.000000e+00 1.000000e+00 0.000000e+00
      outer loop
         vertex 1.500000e+03 1.512500e+03 0.000000e+00
         vertex 3.000000e+03 1.512500e+03 5.000000e+02
         vertex 3.000000e+03 1.512500e+03 0.000000e+00
      endloop
   endfacet
   facet normal -0.000000e+00 -1.000000e+00 -0.000000e+00
      outer loop
         vertex 3.000000e+03 1.487500e+03 5.000000e+02
         vertex 1.500000e+03 1.487500e+03 5.000000e+02
         vertex 3.000000e+03 1.487500e+03 0.000000e+00
      endloop
   endfacet
   facet normal 0.000000e+00 -1.000000e+00 0.000000e+00
      outer loop
         vertex 3.000000e+03 1.487500e+03 0.000000e+00
         vertex 1.500000e+03 1.487500e+03 5.000000e+02
         vertex 1.500000e+03 1.487500e+03 0.000000e+00
      endloop
   endfacet
endsolid